<?xml version="1.0" encoding="UTF-8"?>
<!DOCTYPE svg PUBLIC "-//W3C//DTD SVG 1.1//EN" "http://www.w3.org/Graphics/SVG/1.1/DTD/svg11.dtd">
<svg xmlns="http://www.w3.org/2000/svg" version="1.1" width="463px" height="463px" style="shape-rendering:geometricPrecision; text-rendering:geometricPrecision; image-rendering:optimizeQuality; fill-rule:evenodd; clip-rule:evenodd" xmlns:xlink="http://www.w3.org/1999/xlink">
<g><path style="opacity:1" fill="#fdfdfd" d="M -0.5,-0.5 C 153.833,-0.5 308.167,-0.5 462.5,-0.5C 462.5,153.833 462.5,308.167 462.5,462.5C 308.167,462.5 153.833,462.5 -0.5,462.5C -0.5,308.167 -0.5,153.833 -0.5,-0.5 Z"/></g>
<g><path style="opacity:1" fill="#404349" d="M 215.5,13.5 C 218.625,12.5206 221.958,12.1872 225.5,12.5C 225.795,14.7354 225.461,16.7354 224.5,18.5C 224.5,16.8333 224.5,15.1667 224.5,13.5C 221.5,13.5 218.5,13.5 215.5,13.5 Z"/></g>
<g><path style="opacity:1" fill="#999b9d" d="M 273.5,17.5 C 276.152,17.4095 278.485,18.0762 280.5,19.5C 277.848,19.5905 275.515,18.9238 273.5,17.5 Z"/></g>
<g><path style="opacity:1" fill="#69615a" d="M 261.5,15.5 C 261.59,18.1522 260.924,20.4855 259.5,22.5C 259.41,19.8478 260.076,17.5145 261.5,15.5 Z"/></g>
<g><path style="opacity:1" fill="#110f11" d="M 138.5,30.5 C 151.463,28.9711 157.963,34.6378 158,47.5C 156.65,52.1849 153.817,55.6849 149.5,58C 152.936,58.692 156.27,59.692 159.5,61C 164.694,65.0271 170.027,68.8605 175.5,72.5C 173.25,74.7976 170.584,75.631 167.5,75C 160.833,71 154.167,67 147.5,63C 141.249,61.7953 135.915,63.462 131.5,68C 134.079,74.5798 136.746,81.0798 139.5,87.5C 138.461,89.5311 136.795,90.8645 134.5,91.5C 126.566,75.0971 119.233,58.4304 112.5,41.5C 121.512,38.6084 130.179,34.9417 138.5,30.5 Z"/></g>
<g><path style="opacity:1" fill="#9d9d9f" d="M 194.5,31.5 C 195.451,32.9187 195.784,34.5853 195.5,36.5C 199.5,36.5 203.5,36.5 207.5,36.5C 203.366,37.4849 199.032,37.8182 194.5,37.5C 194.5,35.5 194.5,33.5 194.5,31.5 Z"/></g>
<g><path style="opacity:1" fill="#f3f4f2" d="M 139.5,36.5 C 148.078,36.0019 151.911,40.0019 151,48.5C 149.833,51 148,52.8333 145.5,54C 139.636,55.8512 134.136,58.3512 129,61.5C 127.305,59.7678 125.972,57.7678 125,55.5C 123.645,51.8313 122.645,48.1646 122,44.5C 127.96,41.9115 133.794,39.2448 139.5,36.5 Z"/></g>
<g><path style="opacity:1" fill="#888c8f" d="M 224.5,35.5 C 225.468,37.6074 225.802,39.9407 225.5,42.5C 222.167,42.5 218.833,42.5 215.5,42.5C 218.287,41.5233 221.287,41.19 224.5,41.5C 224.5,39.5 224.5,37.5 224.5,35.5 Z"/></g>
<g><path style="opacity:1" fill="#6b737a" d="M 199.5,43.5 C 198.791,44.404 197.791,44.7373 196.5,44.5C 196.5,47.1667 196.5,49.8333 196.5,52.5C 195.523,49.7131 195.19,46.7131 195.5,43.5C 196.833,43.5 198.167,43.5 199.5,43.5 Z"/></g>
<g><path style="opacity:1" fill="#0b0a0b" d="M 215.5,13.5 C 218.5,13.5 221.5,13.5 224.5,13.5C 224.5,15.1667 224.5,16.8333 224.5,18.5C 214.529,19.5637 204.529,20.2304 194.5,20.5C 194.5,24.1667 194.5,27.8333 194.5,31.5C 194.5,33.5 194.5,35.5 194.5,37.5C 199.032,37.8182 203.366,37.4849 207.5,36.5C 213.189,36.4676 218.855,36.1342 224.5,35.5C 224.5,37.5 224.5,39.5 224.5,41.5C 221.287,41.19 218.287,41.5233 215.5,42.5C 210.167,42.8333 204.833,43.1667 199.5,43.5C 198.167,43.5 196.833,43.5 195.5,43.5C 195.19,46.7131 195.523,49.7131 196.5,52.5C 196.5,55.8333 196.5,59.1667 196.5,62.5C 205.491,61.7315 214.491,61.0648 223.5,60.5C 225.5,60.5 227.5,60.5 229.5,60.5C 229.263,61.791 229.596,62.791 230.5,63.5C 230.5,64.5 230.5,65.5 230.5,66.5C 217.153,66.9175 203.82,67.5842 190.5,68.5C 189.374,50.8146 188.041,33.1479 186.5,15.5C 196.167,14.8333 205.833,14.1667 215.5,13.5 Z"/></g>
<g><path style="opacity:1" fill="#858988" d="M 223.5,60.5 C 225.607,59.5318 227.941,59.1984 230.5,59.5C 230.5,60.8333 230.5,62.1667 230.5,63.5C 229.596,62.791 229.263,61.791 229.5,60.5C 227.5,60.5 225.5,60.5 223.5,60.5 Z"/></g>
<g><path style="opacity:1" fill="#110f10" d="M 273.5,17.5 C 275.515,18.9238 277.848,19.5905 280.5,19.5C 297.105,24.709 302.605,35.709 297,52.5C 293.248,66.9512 284.081,73.4512 269.5,72C 263.799,70.7933 258.132,69.46 252.5,68C 250.349,67.7351 248.682,66.7351 247.5,65C 250.812,50.6054 254.812,36.4387 259.5,22.5C 260.924,20.4855 261.59,18.1522 261.5,15.5C 261.56,14.9569 261.893,14.6236 262.5,14.5C 266.136,15.6586 269.802,16.6586 273.5,17.5 Z"/></g>
<g><path style="opacity:1" fill="#f8f9f7" d="M 264.5,30.5 C 265.924,28.4855 266.59,26.1522 266.5,23.5C 266.735,22.9033 267.235,22.5699 268,22.5C 273.144,24.0777 278.311,25.5777 283.5,27C 289.162,30.1552 291.828,34.9885 291.5,41.5C 291.866,51.7704 287.866,59.7704 279.5,65.5C 278.167,65.8333 276.833,66.1667 275.5,66.5C 268.688,65.7962 262.022,64.4628 255.5,62.5C 257.999,51.6576 260.999,40.991 264.5,30.5 Z"/></g>
<g><path style="opacity:1" fill="#8d95a3" d="M 266.5,23.5 C 266.59,26.1522 265.924,28.4855 264.5,30.5C 264.41,27.8478 265.076,25.5145 266.5,23.5 Z"/></g>
<g><path style="opacity:1" fill="#131213" d="M 336.5,40.5 C 338.91,41.3835 341.243,42.5502 343.5,44C 351.716,50.3911 360.05,56.5577 368.5,62.5C 367.669,65.1132 366.002,66.2799 363.5,66C 355.671,60.5063 347.838,55.0063 340,49.5C 339.5,49.6667 339,49.8333 338.5,50C 336.368,53.7641 333.868,57.2641 331,60.5C 330.333,61.5 330.333,62.5 331,63.5C 338.51,68.5887 345.844,73.922 353,79.5C 352.956,81.2785 352.289,82.9452 351,84.5C 342.748,79.2911 334.581,73.9577 326.5,68.5C 323.104,72.279 319.937,76.279 317,80.5C 316.219,81.9437 316.386,83.277 317.5,84.5C 325.579,90.29 333.746,95.9566 342,101.5C 341.953,103.587 340.953,105.254 339,106.5C 327.821,99.6705 317.321,92.0038 307.5,83.5C 316.903,69.0381 326.57,54.7048 336.5,40.5 Z"/></g>
<g><path style="opacity:1" fill="#d8dcf0" d="M 241.5,87.5 C 253.326,86.3403 265.326,86.1737 277.5,87C 278.337,88.0113 278.67,89.1779 278.5,90.5C 281.91,90.3838 283.244,92.0504 282.5,95.5C 282.167,95.5 281.833,95.5 281.5,95.5C 281.489,93.9826 280.823,92.8159 279.5,92C 277.112,90.1395 274.446,88.8061 271.5,88C 261.506,87.5002 251.506,87.3335 241.5,87.5 Z"/></g>
<g><path style="opacity:1" fill="#363578" d="M 241.5,87.5 C 251.506,87.3335 261.506,87.5002 271.5,88C 274.446,88.8061 277.112,90.1395 279.5,92C 280.823,92.8159 281.489,93.9826 281.5,95.5C 278.605,93.2475 275.272,91.5808 271.5,90.5C 248.817,89.7917 226.151,89.125 203.5,88.5C 203.351,89.552 203.517,90.552 204,91.5C 205.729,91.9743 206.895,92.9743 207.5,94.5C 203.939,92.9522 200.606,90.9522 197.5,88.5C 212.152,87.5007 226.818,87.1674 241.5,87.5 Z"/></g>
<g><path style="opacity:1" fill="#2e3092" d="M 281.5,95.5 C 281.833,95.5 282.167,95.5 282.5,95.5C 285.01,98.3623 286.677,101.696 287.5,105.5C 287.343,106.873 287.51,108.207 288,109.5C 292.753,115.681 296.42,122.348 299,129.5C 299.816,130.823 300.983,131.489 302.5,131.5C 304.83,135.492 307.163,139.492 309.5,143.5C 309.715,149.596 312.049,150.762 316.5,147C 318.165,146.212 319.831,145.878 321.5,146C 322.136,148.394 322.136,150.894 321.5,153.5C 320.833,155.5 320.167,157.5 319.5,159.5C 318.5,159.5 317.5,159.5 316.5,159.5C 315.698,163.394 314.198,167.061 312,170.5C 311.506,172.134 311.34,173.801 311.5,175.5C 310.362,179.109 308.696,182.442 306.5,185.5C 294.683,186.606 283.016,186.272 271.5,184.5C 267.573,183.862 263.573,183.029 259.5,182C 261.778,181.014 264.111,180.18 266.5,179.5C 266.833,178.833 267.167,178.167 267.5,177.5C 266.114,172.929 264.448,168.429 262.5,164C 262.667,163.5 262.833,163 263,162.5C 266.962,165.723 268.795,164.723 268.5,159.5C 265.843,159.162 263.51,159.829 261.5,161.5C 260.158,159.995 258.492,159.328 256.5,159.5C 250.316,150.463 244.65,141.13 239.5,131.5C 239.421,129.334 238.754,127.334 237.5,125.5C 239.387,122.08 239.887,118.413 239,114.5C 237.648,116.594 237.148,118.927 237.5,121.5C 235.692,121.509 234.025,121.009 232.5,120C 231.401,117.394 230.068,114.894 228.5,112.5C 227.675,111.614 226.675,111.281 225.5,111.5C 224.167,111.5 223.5,110.833 223.5,109.5C 223.5,108.5 223.5,107.5 223.5,106.5C 226.292,106.452 228.125,107.785 229,110.5C 230.903,108.559 231.736,106.226 231.5,103.5C 228.421,103.26 225.421,103.593 222.5,104.5C 219.696,102.862 217.029,101.029 214.5,99C 213.663,97.9887 213.33,96.8221 213.5,95.5C 217.073,95.0412 220.073,96.0412 222.5,98.5C 223.429,97.3112 223.762,95.9778 223.5,94.5C 218.167,94.5 212.833,94.5 207.5,94.5C 206.895,92.9743 205.729,91.9743 204,91.5C 203.517,90.552 203.351,89.552 203.5,88.5C 226.151,89.125 248.817,89.7917 271.5,90.5C 275.272,91.5808 278.605,93.2475 281.5,95.5 Z"/></g>
<g><path style="opacity:1" fill="#3d3d7e" d="M 191.5,100.5 C 188.859,99.7369 186.192,99.5702 183.5,100C 181.392,102.883 178.725,105.05 175.5,106.5C 176.949,101.93 179.616,98.2638 183.5,95.5C 186.529,96.6763 189.196,98.343 191.5,100.5 Z"/></g>
<g><path style="opacity:1" fill="#0f0f0f" d="M 114.5,72.5 C 117.535,73.1776 119.201,75.1776 119.5,78.5C 57.4725,132.196 36.3058,199.196 56,279.5C 64.954,307.416 79.2874,332.083 99,353.5C 99.0393,356.332 97.8726,358.665 95.5,360.5C 65.5805,330.322 47.7471,293.989 42,251.5C 34.7783,178.673 58.945,119.007 114.5,72.5 Z"/></g>
<g><path style="opacity:1" fill="#313286" d="M 207.5,94.5 C 212.833,94.5 218.167,94.5 223.5,94.5C 223.762,95.9778 223.429,97.3112 222.5,98.5C 220.073,96.0412 217.073,95.0412 213.5,95.5C 213.33,96.8221 213.663,97.9887 214.5,99C 217.029,101.029 219.696,102.862 222.5,104.5C 225.421,103.593 228.421,103.26 231.5,103.5C 231.736,106.226 230.903,108.559 229,110.5C 228.125,107.785 226.292,106.452 223.5,106.5C 223.5,107.5 223.5,108.5 223.5,109.5C 218.14,104.472 212.807,99.4721 207.5,94.5 Z"/></g>
<g><path style="opacity:1" fill="#3a3873" d="M 191.5,100.5 C 197.173,102.792 201.839,106.459 205.5,111.5C 201.39,108.605 197.056,105.938 192.5,103.5C 191.614,102.675 191.281,101.675 191.5,100.5 Z"/></g>
<g><path style="opacity:1" fill="#2e3092" d="M 191.5,100.5 C 191.281,101.675 191.614,102.675 192.5,103.5C 197.056,105.938 201.39,108.605 205.5,111.5C 206.492,111.328 207.158,111.662 207.5,112.5C 207.238,113.978 207.571,115.311 208.5,116.5C 210.146,117.779 211.313,119.445 212,121.5C 218.113,124.669 220.78,129.669 220,136.5C 218.097,138.441 217.264,140.774 217.5,143.5C 216.833,144.833 216.167,146.167 215.5,147.5C 214.448,147.351 213.448,147.517 212.5,148C 209.109,151.881 207.442,156.381 207.5,161.5C 207.167,162.5 206.5,163.167 205.5,163.5C 203.687,165.053 201.853,166.72 200,168.5C 197.82,174.361 194.987,179.861 191.5,185C 186.962,183.579 182.295,182.413 177.5,181.5C 176.508,181.672 175.842,181.338 175.5,180.5C 175.08,176.442 172.747,174.442 168.5,174.5C 168.023,173.522 167.357,172.689 166.5,172C 164.19,171.503 161.857,171.337 159.5,171.5C 159.5,169.833 159.5,168.167 159.5,166.5C 161.5,166.5 163.5,166.5 165.5,166.5C 165.5,165.5 165.5,164.5 165.5,163.5C 163.08,163.708 160.747,163.374 158.5,162.5C 156.146,166.234 153.479,166.401 150.5,163C 151.337,161.989 151.67,160.822 151.5,159.5C 150.5,159.5 149.5,159.5 148.5,159.5C 151.551,153.726 154.384,147.726 157,141.5C 157.414,141.043 157.914,140.709 158.5,140.5C 159.167,141.5 159.833,142.5 160.5,143.5C 160.833,143.333 161.167,143.167 161.5,143C 160.446,141.612 160.28,140.112 161,138.5C 162.851,134.996 164.184,131.33 165,127.5C 165.667,126.167 166.667,125.167 168,124.5C 167.5,120.18 169.333,117.846 173.5,117.5C 173.757,114.068 174.424,110.734 175.5,107.5C 175.5,107.167 175.5,106.833 175.5,106.5C 178.725,105.05 181.392,102.883 183.5,100C 186.192,99.5702 188.859,99.7369 191.5,100.5 Z"/></g>
<g><path style="opacity:1" fill="#4a4882" d="M 287.5,105.5 C 288.458,105.953 289.292,106.619 290,107.5C 293.922,115.68 298.089,123.68 302.5,131.5C 300.983,131.489 299.816,130.823 299,129.5C 296.42,122.348 292.753,115.681 288,109.5C 287.51,108.207 287.343,106.873 287.5,105.5 Z"/></g>
<g><path style="opacity:1" fill="#36357f" d="M 225.5,111.5 C 226.675,111.281 227.675,111.614 228.5,112.5C 230.068,114.894 231.401,117.394 232.5,120C 234.025,121.009 235.692,121.509 237.5,121.5C 237.148,118.927 237.648,116.594 239,114.5C 239.887,118.413 239.387,122.08 237.5,125.5C 238.754,127.334 239.421,129.334 239.5,131.5C 233.848,125.532 229.181,118.865 225.5,111.5 Z"/></g>
<g><path style="opacity:1" fill="#3d3b7b" d="M 207.5,112.5 C 213.924,117.423 219.09,123.423 223,130.5C 223.667,131.833 223.667,133.167 223,134.5C 221.141,137.564 219.308,140.564 217.5,143.5C 217.264,140.774 218.097,138.441 220,136.5C 220.78,129.669 218.113,124.669 212,121.5C 211.313,119.445 210.146,117.779 208.5,116.5C 207.571,115.311 207.238,113.978 207.5,112.5 Z"/></g>
<g><path style="opacity:1" fill="#676385" d="M 324.5,148.5 C 325.623,146.021 325.623,143.688 324.5,141.5C 325.688,140.636 326.855,139.636 328,138.5C 328.167,138.833 328.333,139.167 328.5,139.5C 327.605,142.846 326.271,145.846 324.5,148.5 Z"/></g>
<g><path style="opacity:1" fill="#3d3b7e" d="M 324.5,141.5 C 325.623,143.688 325.623,146.021 324.5,148.5C 323.737,150.368 322.737,152.035 321.5,153.5C 322.136,150.894 322.136,148.394 321.5,146C 319.831,145.878 318.165,146.212 316.5,147C 312.049,150.762 309.715,149.596 309.5,143.5C 310.223,145.213 311.557,146.213 313.5,146.5C 317.307,145.096 320.973,143.429 324.5,141.5 Z"/></g>
<g><path style="opacity:1" fill="#353477" d="M 215.5,147.5 C 212.365,151.951 209.698,156.618 207.5,161.5C 207.442,156.381 209.109,151.881 212.5,148C 213.448,147.517 214.448,147.351 215.5,147.5 Z"/></g>
<g><path style="opacity:1" fill="#0e0e0e" d="M 420.5,180.5 C 420.59,177.848 419.924,175.515 418.5,173.5C 407.832,137.983 388.498,108.15 360.5,84C 361.369,81.4215 363.035,79.5882 365.5,78.5C 403.916,110.987 426.416,152.32 433,202.5C 438.762,269.09 417.595,325.257 369.5,371C 366.118,371.309 363.451,369.976 361.5,367C 411.69,320.859 432.523,263.692 424,195.5C 423.131,190.298 421.964,185.298 420.5,180.5 Z"/></g>
<g><path style="opacity:1" fill="#333487" d="M 256.5,159.5 C 258.492,159.328 260.158,159.995 261.5,161.5C 263.51,159.829 265.843,159.162 268.5,159.5C 268.795,164.723 266.962,165.723 263,162.5C 262.833,163 262.667,163.5 262.5,164C 264.448,168.429 266.114,172.929 267.5,177.5C 267.167,178.167 266.833,178.833 266.5,179.5C 264.111,180.18 261.778,181.014 259.5,182C 263.573,183.029 267.573,183.862 271.5,184.5C 266.167,184.5 260.833,184.5 255.5,184.5C 255.5,183.5 255.5,182.5 255.5,181.5C 258.764,179.906 261.431,177.573 263.5,174.5C 261.612,169.249 259.278,164.249 256.5,159.5 Z"/></g>
<g><path style="opacity:1" fill="#393a85" d="M 175.5,107.5 C 174.424,110.734 173.757,114.068 173.5,117.5C 169.333,117.846 167.5,120.18 168,124.5C 166.667,125.167 165.667,126.167 165,127.5C 164.184,131.33 162.851,134.996 161,138.5C 160.28,140.112 160.446,141.612 161.5,143C 161.167,143.167 160.833,143.333 160.5,143.5C 159.833,142.5 159.167,141.5 158.5,140.5C 157.914,140.709 157.414,141.043 157,141.5C 154.384,147.726 151.551,153.726 148.5,159.5C 149.5,159.5 150.5,159.5 151.5,159.5C 151.67,160.822 151.337,161.989 150.5,163C 153.479,166.401 156.146,166.234 158.5,162.5C 160.747,163.374 163.08,163.708 165.5,163.5C 165.5,164.5 165.5,165.5 165.5,166.5C 163.5,166.5 161.5,166.5 159.5,166.5C 159.5,168.167 159.5,169.833 159.5,171.5C 153.983,168.609 148.649,165.443 143.5,162C 149.596,149.642 156.096,137.476 163,125.5C 166.45,118.91 170.616,112.91 175.5,107.5 Z"/></g>
<g><path style="opacity:1" fill="#313172" d="M 319.5,159.5 C 317.343,165.146 314.677,170.48 311.5,175.5C 311.34,173.801 311.506,172.134 312,170.5C 314.198,167.061 315.698,163.394 316.5,159.5C 317.5,159.5 318.5,159.5 319.5,159.5 Z"/></g>
<g><path style="opacity:1" fill="#3f3c7e" d="M 159.5,171.5 C 161.857,171.337 164.19,171.503 166.5,172C 167.357,172.689 168.023,173.522 168.5,174.5C 172.747,174.442 175.08,176.442 175.5,180.5C 170.122,177.493 164.788,174.493 159.5,171.5 Z"/></g>
<g><path style="opacity:1" fill="#353478" d="M 205.5,163.5 C 201.466,172.564 196.632,181.231 191,189.5C 186.292,187.051 181.792,184.385 177.5,181.5C 182.295,182.413 186.962,183.579 191.5,185C 194.987,179.861 197.82,174.361 200,168.5C 201.853,166.72 203.687,165.053 205.5,163.5 Z"/></g>
<g><path style="opacity:1" fill="#9c9c9c" d="M 418.5,173.5 C 419.924,175.515 420.59,177.848 420.5,180.5C 419.076,178.485 418.41,176.152 418.5,173.5 Z"/></g>
<g><path style="opacity:1" fill="#363471" d="M 255.5,181.5 C 255.5,182.5 255.5,183.5 255.5,184.5C 260.833,184.5 266.167,184.5 271.5,184.5C 283.016,186.272 294.683,186.606 306.5,185.5C 306.5,186.5 306.5,187.5 306.5,188.5C 302.833,188.5 299.167,188.5 295.5,188.5C 287.675,187.508 279.675,186.841 271.5,186.5C 263.837,186.022 256.17,185.522 248.5,185C 250.527,183.121 252.86,181.954 255.5,181.5 Z"/></g>
<g><path style="opacity:1" fill="#b6b5d9" d="M 271.5,186.5 C 279.675,186.841 287.675,187.508 295.5,188.5C 288.492,188.666 281.492,188.5 274.5,188C 273.263,187.768 272.263,187.268 271.5,186.5 Z"/></g>
<g><path style="opacity:1" fill="#f8f99f" d="M 342.5,191.5 C 342.629,193.216 342.962,194.883 343.5,196.5C 341.853,193.594 339.52,191.26 336.5,189.5C 334.677,190.747 332.677,191.414 330.5,191.5C 334.467,185.072 338.467,185.072 342.5,191.5 Z"/></g>
<g><path style="opacity:1" fill="#daf9eb" d="M 157.5,188.5 C 152.637,188.181 147.97,188.514 143.5,189.5C 135.325,189.841 127.325,190.508 119.5,191.5C 116.833,191.5 114.167,191.5 111.5,191.5C 113.364,189.782 115.697,188.615 118.5,188C 127.828,187.402 137.162,186.902 146.5,186.5C 150.565,186.511 154.232,187.178 157.5,188.5 Z"/></g>
<g><path style="opacity:1" fill="#3f986d" d="M 143.5,189.5 C 142.167,190.167 140.833,190.833 139.5,191.5C 135.5,191.5 131.5,191.5 127.5,191.5C 124.833,191.5 122.167,191.5 119.5,191.5C 127.325,190.508 135.325,189.841 143.5,189.5 Z"/></g>
<g><path style="opacity:1" fill="#03a553" d="M 165.5,207.5 C 166.167,207.5 166.5,207.833 166.5,208.5C 168.237,215.2 169.903,221.867 171.5,228.5C 168.911,229.205 166.244,229.205 163.5,228.5C 163.008,230.841 161.841,232.841 160,234.5C 159.506,236.134 159.34,237.801 159.5,239.5C 158.167,239.5 156.833,239.5 155.5,239.5C 155.93,242.862 154.93,245.695 152.5,248C 151.833,248.667 151.167,248.667 150.5,248C 149.845,246.513 148.845,245.347 147.5,244.5C 145.553,246.276 145.22,248.276 146.5,250.5C 147.425,249.359 148.259,249.359 149,250.5C 149.494,252.134 149.66,253.801 149.5,255.5C 148.5,255.5 147.5,255.5 146.5,255.5C 145.589,259.657 143.422,262.991 140,265.5C 139.121,268.818 138.287,272.152 137.5,275.5C 135.851,276.706 134.351,278.039 133,279.5C 132.014,275.625 130.847,275.625 129.5,279.5C 133.175,284.916 132.842,290.25 128.5,295.5C 127.52,298.086 127.187,300.753 127.5,303.5C 126.5,303.5 125.5,303.5 124.5,303.5C 123.981,310.835 123.314,318.169 122.5,325.5C 119.789,322.338 117.956,318.671 117,314.5C 113.144,311.274 109.977,307.607 107.5,303.5C 106.504,303.586 105.671,303.252 105,302.5C 102.307,295.781 99.1407,289.448 95.5,283.5C 95.9974,279.838 94.8307,276.838 92,274.5C 91.6781,270.039 90.5114,265.873 88.5,262C 90.0501,258.683 91.2168,255.183 92,251.5C 92.6152,249.884 93.6152,248.551 95,247.5C 95.4935,245.866 95.6602,244.199 95.5,242.5C 97.1457,239.209 98.8124,235.875 100.5,232.5C 100.957,231.702 101.624,231.369 102.5,231.5C 104.148,230.223 105.982,229.223 108,228.5C 108.595,227.101 108.428,225.768 107.5,224.5C 109.632,220.569 112.465,217.236 116,214.5C 117.893,209.692 118.727,204.692 118.5,199.5C 116.42,198.956 114.42,198.122 112.5,197C 113.167,196.333 113.833,195.667 114.5,195C 117.856,194.785 121.189,194.785 124.5,195C 126.063,194.241 127.063,193.074 127.5,191.5C 131.5,191.5 135.5,191.5 139.5,191.5C 144.499,190.916 149.499,190.749 154.5,191C 153.941,191.725 153.608,192.558 153.5,193.5C 154.531,195.382 155.365,197.382 156,199.5C 156.324,197.431 157.158,197.098 158.5,198.5C 160.632,201.819 162.965,204.819 165.5,207.5 Z"/></g>
<g><path style="opacity:1" fill="#fcf10d" d="M 343.5,196.5 C 344.696,201.002 347.029,204.669 350.5,207.5C 351.404,208.209 351.737,209.209 351.5,210.5C 352.043,213.038 353.043,215.372 354.5,217.5C 354.89,220.839 355.39,224.173 356,227.5C 357.299,227.966 358.799,227.966 360.5,227.5C 361.413,231.234 362.747,234.9 364.5,238.5C 365.325,239.386 366.325,239.719 367.5,239.5C 367.386,243.614 369.052,246.614 372.5,248.5C 373.519,251.872 373.519,255.206 372.5,258.5C 371.087,259.935 369.42,260.935 367.5,261.5C 362.897,263.47 358.064,265.137 353,266.5C 351.97,266.836 351.47,267.503 351.5,268.5C 347.851,269.391 344.184,270.391 340.5,271.5C 333.292,272.004 326.292,271.337 319.5,269.5C 319.5,267.833 319.5,266.167 319.5,264.5C 319.785,262.712 319.452,261.045 318.5,259.5C 317.098,259.135 316.098,258.301 315.5,257C 312.884,252.328 310.551,247.495 308.5,242.5C 306.833,242.5 305.167,242.5 303.5,242.5C 303.5,241.5 303.5,240.5 303.5,239.5C 301.928,236.583 299.928,233.916 297.5,231.5C 297.88,229.302 297.213,227.635 295.5,226.5C 294.833,225.5 294.167,224.5 293.5,223.5C 291.229,215.742 294.229,211.409 302.5,210.5C 303.386,209.675 303.719,208.675 303.5,207.5C 307.884,206.808 311.55,204.808 314.5,201.5C 316.112,199.667 317.778,198 319.5,196.5C 323.689,195.779 327.355,194.113 330.5,191.5C 332.677,191.414 334.677,190.747 336.5,189.5C 339.52,191.26 341.853,193.594 343.5,196.5 Z"/></g>
<g><path style="opacity:1" fill="#219e5a" d="M 157.5,188.5 C 159.906,194.975 162.573,201.308 165.5,207.5C 162.965,204.819 160.632,201.819 158.5,198.5C 157.158,197.098 156.324,197.431 156,199.5C 155.365,197.382 154.531,195.382 153.5,193.5C 153.608,192.558 153.941,191.725 154.5,191C 149.499,190.749 144.499,190.916 139.5,191.5C 140.833,190.833 142.167,190.167 143.5,189.5C 147.97,188.514 152.637,188.181 157.5,188.5 Z"/></g>
<g><path style="opacity:1" fill="#fffbbb" d="M 330.5,191.5 C 327.355,194.113 323.689,195.779 319.5,196.5C 322.836,194.269 326.503,192.603 330.5,191.5 Z"/></g>
<g><path style="opacity:1" fill="#fefdd8" d="M 342.5,191.5 C 345.917,193.891 347.25,197.225 346.5,201.5C 347.833,201.5 349.167,201.5 350.5,201.5C 352,200.697 352,202.697 350.5,207.5C 347.029,204.669 344.696,201.002 343.5,196.5C 342.962,194.883 342.629,193.216 342.5,191.5 Z"/></g>
<g><path style="opacity:1" fill="#f6f27a" d="M 314.5,201.5 C 311.55,204.808 307.884,206.808 303.5,207.5C 303.5,206.5 303.5,205.5 303.5,204.5C 307.333,203.975 311,202.975 314.5,201.5 Z"/></g>
<g><path style="opacity:1" fill="#299e60" d="M 111.5,191.5 C 114.167,191.5 116.833,191.5 119.5,191.5C 122.167,191.5 124.833,191.5 127.5,191.5C 127.063,193.074 126.063,194.241 124.5,195C 121.189,194.785 117.856,194.785 114.5,195C 113.833,195.667 113.167,196.333 112.5,197C 114.42,198.122 116.42,198.956 118.5,199.5C 118.727,204.692 117.893,209.692 116,214.5C 112.465,217.236 109.632,220.569 107.5,224.5C 108.428,225.768 108.595,227.101 108,228.5C 105.982,229.223 104.148,230.223 102.5,231.5C 106.709,221.952 111.376,212.619 116.5,203.5C 116.392,202.558 116.059,201.725 115.5,201C 110.995,199.251 106.995,196.751 103.5,193.5C 105.851,191.771 108.518,191.104 111.5,191.5 Z"/></g>
<g><path style="opacity:1" fill="#fefdd8" d="M 300.5,207.5 C 300.631,208.376 300.298,209.043 299.5,209.5C 295.97,210.515 292.803,212.181 290,214.5C 289.51,216.545 289.677,218.545 290.5,220.5C 287.81,218.741 287.144,216.407 288.5,213.5C 290.389,212.396 292.055,211.063 293.5,209.5C 295.843,208.725 298.177,208.058 300.5,207.5 Z"/></g>
<g><path style="opacity:1" fill="#f4f268" d="M 300.5,207.5 C 301.5,207.5 302.5,207.5 303.5,207.5C 303.719,208.675 303.386,209.675 302.5,210.5C 294.229,211.409 291.229,215.742 293.5,223.5C 292.728,222.306 291.728,221.306 290.5,220.5C 289.677,218.545 289.51,216.545 290,214.5C 292.803,212.181 295.97,210.515 299.5,209.5C 300.298,209.043 300.631,208.376 300.5,207.5 Z"/></g>
<g><path style="opacity:1" fill="#fcfbac" d="M 351.5,210.5 C 353.017,210.511 354.184,211.177 355,212.5C 355.113,214.974 356.113,216.974 358,218.5C 358.494,220.134 358.66,221.801 358.5,223.5C 358.023,220.975 356.69,218.975 354.5,217.5C 353.043,215.372 352.043,213.038 351.5,210.5 Z"/></g>
<g><path style="opacity:1" fill="#2a9d60" d="M 166.5,208.5 C 171.154,217.809 175.821,227.142 180.5,236.5C 178.997,237.052 177.331,237.052 175.5,236.5C 172.497,234.348 169.33,232.348 166,230.5C 163.152,232.859 161.319,235.859 160.5,239.5C 160.167,239.5 159.833,239.5 159.5,239.5C 159.34,237.801 159.506,236.134 160,234.5C 161.841,232.841 163.008,230.841 163.5,228.5C 166.244,229.205 168.911,229.205 171.5,228.5C 169.903,221.867 168.237,215.2 166.5,208.5 Z"/></g>
<g><path style="opacity:1" fill="#fdfca7" d="M 295.5,226.5 C 297.213,227.635 297.88,229.302 297.5,231.5C 295.787,230.365 295.12,228.698 295.5,226.5 Z"/></g>
<g><path style="opacity:1" fill="#daf8e6" d="M 175.5,236.5 C 172.017,236.309 168.684,235.643 165.5,234.5C 165.5,236.167 165.5,237.833 165.5,239.5C 163.833,239.5 162.167,239.5 160.5,239.5C 161.319,235.859 163.152,232.859 166,230.5C 169.33,232.348 172.497,234.348 175.5,236.5 Z"/></g>
<g><path style="opacity:1" fill="#fbfca5" d="M 297.5,231.5 C 299.928,233.916 301.928,236.583 303.5,239.5C 300.328,237.668 298.328,235.001 297.5,231.5 Z"/></g>
<g><path style="opacity:1" fill="#f4f14f" d="M 354.5,217.5 C 356.69,218.975 358.023,220.975 358.5,223.5C 360.193,224.475 361.693,225.808 363,227.5C 363.236,229.811 364.069,231.811 365.5,233.5C 366.63,235.315 367.296,237.315 367.5,239.5C 366.325,239.719 365.325,239.386 364.5,238.5C 362.747,234.9 361.413,231.234 360.5,227.5C 358.799,227.966 357.299,227.966 356,227.5C 355.39,224.173 354.89,220.839 354.5,217.5 Z"/></g>
<g><path style="opacity:1" fill="#f7f06a" d="M 367.5,239.5 C 369.891,241.935 371.558,244.935 372.5,248.5C 369.052,246.614 367.386,243.614 367.5,239.5 Z"/></g>
<g><path style="opacity:1" fill="#d0f7e2" d="M 159.5,241.5 C 158.877,247.421 156.21,252.088 151.5,255.5C 153.159,250.173 155.826,245.507 159.5,241.5 Z"/></g>
<g><path style="opacity:1" fill="#fcfeea" d="M 367.5,262.5 C 367.5,262.167 367.5,261.833 367.5,261.5C 369.42,260.935 371.087,259.935 372.5,258.5C 376.174,255.391 376.174,252.057 372.5,248.5C 371.558,244.935 369.891,241.935 367.5,239.5C 367.296,237.315 366.63,235.315 365.5,233.5C 368.405,231.86 370.738,232.527 372.5,235.5C 376.166,241.002 379.166,246.835 381.5,253C 378.679,256.49 375.845,259.99 373,263.5C 371.301,262.594 369.467,262.261 367.5,262.5 Z"/></g>
<g><path style="opacity:1" fill="#f5f14a" d="M 303.5,242.5 C 305.167,242.5 306.833,242.5 308.5,242.5C 310.551,247.495 312.884,252.328 315.5,257C 316.098,258.301 317.098,259.135 318.5,259.5C 319.452,261.045 319.785,262.712 319.5,264.5C 316.132,262.078 313.465,259.078 311.5,255.5C 309.597,250.693 306.93,246.36 303.5,242.5 Z"/></g>
<g><path style="opacity:1" fill="#f3f06d" d="M 372.5,248.5 C 376.174,252.057 376.174,255.391 372.5,258.5C 373.519,255.206 373.519,251.872 372.5,248.5 Z"/></g>
<g><path style="opacity:1" fill="#fdfdd1" d="M 311.5,255.5 C 313.465,259.078 316.132,262.078 319.5,264.5C 319.5,266.167 319.5,267.833 319.5,269.5C 317.718,270.72 315.718,271.386 313.5,271.5C 313.915,269.253 314.582,267.086 315.5,265C 315.291,263.129 314.291,261.962 312.5,261.5C 311.534,259.604 311.201,257.604 311.5,255.5 Z"/></g>
<g><path style="opacity:1" fill="#fcf996" d="M 367.5,261.5 C 367.5,261.833 367.5,262.167 367.5,262.5C 362.375,264.792 357.041,266.792 351.5,268.5C 351.47,267.503 351.97,266.836 353,266.5C 358.064,265.137 362.897,263.47 367.5,261.5 Z"/></g>
<g><path style="opacity:1" fill="#219d5a" d="M 159.5,239.5 C 159.5,240.167 159.5,240.833 159.5,241.5C 155.826,245.507 153.159,250.173 151.5,255.5C 146.136,262.89 141.803,270.89 138.5,279.5C 134.29,285.936 131.123,292.936 129,300.5C 126.789,310.839 124.955,321.172 123.5,331.5C 119.863,325.208 115.863,319.208 111.5,313.5C 110.613,309.96 109.279,306.627 107.5,303.5C 109.977,307.607 113.144,311.274 117,314.5C 117.956,318.671 119.789,322.338 122.5,325.5C 123.314,318.169 123.981,310.835 124.5,303.5C 125.5,303.5 126.5,303.5 127.5,303.5C 127.187,300.753 127.52,298.086 128.5,295.5C 132.842,290.25 133.175,284.916 129.5,279.5C 130.847,275.625 132.014,275.625 133,279.5C 134.351,278.039 135.851,276.706 137.5,275.5C 138.287,272.152 139.121,268.818 140,265.5C 143.422,262.991 145.589,259.657 146.5,255.5C 147.5,255.5 148.5,255.5 149.5,255.5C 149.66,253.801 149.494,252.134 149,250.5C 148.259,249.359 147.425,249.359 146.5,250.5C 145.22,248.276 145.553,246.276 147.5,244.5C 148.845,245.347 149.845,246.513 150.5,248C 151.167,248.667 151.833,248.667 152.5,248C 154.93,245.695 155.93,242.862 155.5,239.5C 156.833,239.5 158.167,239.5 159.5,239.5 Z"/></g>
<g><path style="opacity:1" fill="#239c5d" d="M 95.5,242.5 C 95.6602,244.199 95.4935,245.866 95,247.5C 93.6152,248.551 92.6152,249.884 92,251.5C 91.2168,255.183 90.0501,258.683 88.5,262C 90.5114,265.873 91.6781,270.039 92,274.5C 94.8307,276.838 95.9974,279.838 95.5,283.5C 92.9435,278.731 90.1102,274.064 87,269.5C 85.5427,265.259 85.2093,260.926 86,256.5C 89.0297,251.656 92.1963,246.989 95.5,242.5 Z"/></g>
<g><path style="opacity:1" fill="#faf8b5" d="M 266.5,284.5 C 266.167,284.5 265.833,284.5 265.5,284.5C 265.5,280.167 265.5,275.833 265.5,271.5C 264.167,271.5 262.833,271.5 261.5,271.5C 260.578,274.126 259.578,276.793 258.5,279.5C 257.675,280.386 256.675,280.719 255.5,280.5C 255.34,278.801 255.506,277.134 256,275.5C 257.147,276.458 258.147,276.125 259,274.5C 259.771,271.81 260.604,269.144 261.5,266.5C 263.446,264.913 264.946,265.246 266,267.5C 266.499,273.157 266.666,278.824 266.5,284.5 Z"/></g>
<g><path style="opacity:1" fill="#fdfdf1" d="M 367.5,262.5 C 366.722,263.156 366.056,263.989 365.5,265C 365.833,265.5 366.167,266 366.5,266.5C 369.523,264.839 371.857,265.505 373.5,268.5C 375.535,269.041 377.535,269.708 379.5,270.5C 378.675,271.386 377.675,271.719 376.5,271.5C 377.172,274.942 376.172,277.609 373.5,279.5C 374.265,276.904 374.599,274.237 374.5,271.5C 372.396,271.201 370.396,271.534 368.5,272.5C 366.637,273.689 364.97,275.022 363.5,276.5C 360.105,277.56 356.605,278.56 353,279.5C 351.97,279.836 351.47,280.503 351.5,281.5C 345.916,281.255 340.583,281.922 335.5,283.5C 328.5,283.5 321.5,283.5 314.5,283.5C 319.651,282.673 324.984,282.173 330.5,282C 331.973,281.29 332.64,280.124 332.5,278.5C 334.143,278.48 335.476,279.147 336.5,280.5C 338.001,279.248 339.668,278.248 341.5,277.5C 340.833,277.167 340.167,276.833 339.5,276.5C 334.344,275.932 329.344,275.265 324.5,274.5C 329.196,274.329 333.863,273.829 338.5,273C 339.416,272.722 340.082,272.222 340.5,271.5C 344.184,270.391 347.851,269.391 351.5,268.5C 357.041,266.792 362.375,264.792 367.5,262.5 Z"/></g>
<g><path style="opacity:1" fill="#f8f99c" d="M 373.5,279.5 C 371.345,281.617 370.345,284.284 370.5,287.5C 369.5,287.5 368.5,287.5 367.5,287.5C 366.889,284.039 368.056,281.372 371,279.5C 371.49,278.207 371.657,276.873 371.5,275.5C 368.833,275.833 366.167,276.167 363.5,276.5C 364.97,275.022 366.637,273.689 368.5,272.5C 370.396,271.534 372.396,271.201 374.5,271.5C 374.599,274.237 374.265,276.904 373.5,279.5 Z"/></g>
<g><path style="opacity:1" fill="#fcfbbc" d="M 319.5,269.5 C 326.292,271.337 333.292,272.004 340.5,271.5C 340.082,272.222 339.416,272.722 338.5,273C 333.863,273.829 329.196,274.329 324.5,274.5C 322.883,273.962 321.216,273.629 319.5,273.5C 319.5,272.167 319.5,270.833 319.5,269.5 Z"/></g>
<g><path style="opacity:1" fill="#fdfbc2" d="M 255.5,280.5 C 255.762,281.978 255.429,283.311 254.5,284.5C 253.265,285.34 252.265,286.34 251.5,287.5C 250.1,288.1 249.1,289.1 248.5,290.5C 248.462,285.534 250.795,282.201 255.5,280.5 Z"/></g>
<g><path style="opacity:1" fill="#fdf10a" d="M 265.5,284.5 C 266.985,286.231 268.985,287.231 271.5,287.5C 296.224,288.086 320.891,287.252 345.5,285C 347.257,283.25 349.257,282.084 351.5,281.5C 351.47,280.503 351.97,279.836 353,279.5C 356.605,278.56 360.105,277.56 363.5,276.5C 366.167,276.167 368.833,275.833 371.5,275.5C 371.657,276.873 371.49,278.207 371,279.5C 368.056,281.372 366.889,284.039 367.5,287.5C 363.281,290.92 360.281,295.254 358.5,300.5C 357.596,301.209 357.263,302.209 357.5,303.5C 355.987,307.038 353.987,310.372 351.5,313.5C 349.983,313.511 348.816,314.177 348,315.5C 347.312,319.068 346.145,322.401 344.5,325.5C 344.008,327.819 343.008,329.819 341.5,331.5C 339.873,333.464 337.873,334.797 335.5,335.5C 335.5,336.833 335.5,338.167 335.5,339.5C 332.794,339.575 330.127,339.908 327.5,340.5C 307.164,340.333 286.831,340.5 266.5,341C 266,341.5 265.5,342 265,342.5C 264.828,346.871 264.328,351.204 263.5,355.5C 262.333,353.921 261,352.588 259.5,351.5C 259.167,351.5 258.833,351.5 258.5,351.5C 257.122,350.455 256.122,349.122 255.5,347.5C 253.925,342.47 250.925,338.47 246.5,335.5C 245.314,331.643 242.98,328.643 239.5,326.5C 238.199,324.328 237.199,321.995 236.5,319.5C 235.833,317.181 235.666,314.847 236,312.5C 238.167,310.833 240.333,309.167 242.5,307.5C 243.62,302.565 246.12,298.565 250,295.5C 250.49,294.207 250.657,292.873 250.5,291.5C 250.833,290.167 251.167,288.833 251.5,287.5C 252.265,286.34 253.265,285.34 254.5,284.5C 255.429,283.311 255.762,281.978 255.5,280.5C 256.675,280.719 257.675,280.386 258.5,279.5C 259.578,276.793 260.578,274.126 261.5,271.5C 262.833,271.5 264.167,271.5 265.5,271.5C 265.5,275.833 265.5,280.167 265.5,284.5 Z"/></g>
<g><path style="opacity:1" fill="#f3ed47" d="M 351.5,281.5 C 349.257,282.084 347.257,283.25 345.5,285C 320.891,287.252 296.224,288.086 271.5,287.5C 283.833,286.833 296.167,286.167 308.5,285.5C 317.727,285.877 326.727,285.211 335.5,283.5C 340.583,281.922 345.916,281.255 351.5,281.5 Z"/></g>
<g><path style="opacity:1" fill="#fdfa8b" d="M 265.5,284.5 C 265.833,284.5 266.167,284.5 266.5,284.5C 280.323,285.496 294.323,285.829 308.5,285.5C 296.167,286.167 283.833,286.833 271.5,287.5C 268.985,287.231 266.985,286.231 265.5,284.5 Z"/></g>
<g><path style="opacity:1" fill="#fffebf" d="M 314.5,283.5 C 321.5,283.5 328.5,283.5 335.5,283.5C 326.727,285.211 317.727,285.877 308.5,285.5C 294.323,285.829 280.323,285.496 266.5,284.5C 282.519,284.719 298.519,284.386 314.5,283.5 Z"/></g>
<g><path style="opacity:1" fill="#03a553" d="M 149.5,287.5 C 170.833,287.5 192.167,287.5 213.5,287.5C 213.833,304.846 213.5,322.179 212.5,339.5C 189.23,341.213 165.896,341.88 142.5,341.5C 141.833,341.5 141.167,341.5 140.5,341.5C 139.298,339.277 138.631,336.777 138.5,334C 139.68,321.755 141.347,309.588 143.5,297.5C 143.5,296.833 143.5,296.167 143.5,295.5C 145.037,292.398 147.037,289.732 149.5,287.5 Z"/></g>
<g><path style="opacity:1" fill="#faf67e" d="M 251.5,287.5 C 251.167,288.833 250.833,290.167 250.5,291.5C 249.061,293.36 247.395,295.027 245.5,296.5C 246.471,294.517 247.471,292.517 248.5,290.5C 249.1,289.1 250.1,288.1 251.5,287.5 Z"/></g>
<g><path style="opacity:1" fill="#f7f683" d="M 367.5,287.5 C 364.732,292.05 361.732,296.383 358.5,300.5C 360.281,295.254 363.281,290.92 367.5,287.5 Z"/></g>
<g><path style="opacity:1" fill="#fefbc9" d="M 248.5,290.5 C 247.471,292.517 246.471,294.517 245.5,296.5C 244.148,299.165 242.482,301.498 240.5,303.5C 242.718,300.285 243.885,296.618 244,292.5C 245.33,291.418 246.83,290.751 248.5,290.5 Z"/></g>
<g><path style="opacity:1" fill="#2f9662" d="M 143.5,297.5 C 141.347,309.588 139.68,321.755 138.5,334C 138.631,336.777 139.298,339.277 140.5,341.5C 139.833,341.5 139.167,341.5 138.5,341.5C 137.833,341.5 137.167,341.5 136.5,341.5C 136.26,326.277 138.594,311.611 143.5,297.5 Z"/></g>
<g><path style="opacity:1" fill="#fdfbb9" d="M 239.5,305.5 C 238.604,308.069 236.938,310.069 234.5,311.5C 233.548,313.045 233.215,314.712 233.5,316.5C 232.853,315.726 232.52,314.726 232.5,313.5C 234.271,311.059 235.604,308.393 236.5,305.5C 237.5,305.5 238.5,305.5 239.5,305.5 Z"/></g>
<g><path style="opacity:1" fill="#f7ee3f" d="M 250.5,291.5 C 250.657,292.873 250.49,294.207 250,295.5C 246.12,298.565 243.62,302.565 242.5,307.5C 240.333,309.167 238.167,310.833 236,312.5C 235.666,314.847 235.833,317.181 236.5,319.5C 235.1,318.9 234.1,317.9 233.5,316.5C 233.215,314.712 233.548,313.045 234.5,311.5C 236.938,310.069 238.604,308.069 239.5,305.5C 239.328,304.508 239.662,303.842 240.5,303.5C 242.482,301.498 244.148,299.165 245.5,296.5C 247.395,295.027 249.061,293.36 250.5,291.5 Z"/></g>
<g><path style="opacity:1" fill="#ddfaec" d="M 143.5,295.5 C 143.5,296.167 143.5,296.833 143.5,297.5C 138.594,311.611 136.26,326.277 136.5,341.5C 135.748,331.42 135.415,321.253 135.5,311C 138.309,306.614 139.976,301.781 140.5,296.5C 141.325,295.614 142.325,295.281 143.5,295.5 Z"/></g>
<g><path style="opacity:1" fill="#fefdcb" d="M 357.5,303.5 C 358.841,309.162 356.841,312.828 351.5,314.5C 351.5,314.167 351.5,313.833 351.5,313.5C 353.987,310.372 355.987,307.038 357.5,303.5 Z"/></g>
<g><path style="opacity:1" fill="#faf685" d="M 351.5,313.5 C 351.5,313.833 351.5,314.167 351.5,314.5C 349.913,318.683 347.579,322.35 344.5,325.5C 346.145,322.401 347.312,319.068 348,315.5C 348.816,314.177 349.983,313.511 351.5,313.5 Z"/></g>
<g><path style="opacity:1" fill="#d6f5e7" d="M 138.5,279.5 C 137.067,288.034 134.233,295.367 130,301.5C 128.37,311.468 127.204,321.468 126.5,331.5C 125.131,333.124 123.464,333.624 121.5,333C 119.875,330.89 118.542,328.557 117.5,326C 115.687,326.046 114.021,325.88 112.5,325.5C 113.022,324.393 113.355,323.226 113.5,322C 112.383,319.269 111.717,316.435 111.5,313.5C 115.863,319.208 119.863,325.208 123.5,331.5C 124.955,321.172 126.789,310.839 129,300.5C 131.123,292.936 134.29,285.936 138.5,279.5 Z"/></g>
<g><path style="opacity:1" fill="#fefaa9" d="M 239.5,326.5 C 242.98,328.643 245.314,331.643 246.5,335.5C 243.44,333.102 241.107,330.102 239.5,326.5 Z"/></g>
<g><path style="opacity:1" fill="#f9fcac" d="M 341.5,331.5 C 340.68,333.812 339.847,336.146 339,338.5C 337.989,339.337 336.822,339.67 335.5,339.5C 335.5,338.167 335.5,336.833 335.5,335.5C 337.873,334.797 339.873,333.464 341.5,331.5 Z"/></g>
<g><path style="opacity:1" fill="#fdfbbb" d="M 246.5,335.5 C 250.925,338.47 253.925,342.47 255.5,347.5C 254.5,347.5 253.5,347.5 252.5,347.5C 251.736,344.213 249.903,341.546 247,339.5C 246.51,338.207 246.343,336.873 246.5,335.5 Z"/></g>
<g><path style="opacity:1" fill="#edec53" d="M 327.5,340.5 C 307.5,341.167 287.5,341.833 267.5,342.5C 266.883,342.611 266.383,342.944 266,343.5C 265.501,348.155 265.334,352.821 265.5,357.5C 261.833,357.167 259.833,355.167 259.5,351.5C 261,352.588 262.333,353.921 263.5,355.5C 264.328,351.204 264.828,346.871 265,342.5C 265.5,342 266,341.5 266.5,341C 286.831,340.5 307.164,340.333 327.5,340.5 Z"/></g>
<g><path style="opacity:1" fill="#2e8f61" d="M 149.5,287.5 C 170.994,286.503 192.66,286.169 214.5,286.5C 214.5,304.833 214.5,323.167 214.5,341.5C 190.339,342.692 166.339,342.692 142.5,341.5C 165.896,341.88 189.23,341.213 212.5,339.5C 213.5,322.179 213.833,304.846 213.5,287.5C 192.167,287.5 170.833,287.5 149.5,287.5 Z"/></g>
<g><path style="opacity:1" fill="#fdfc97" d="M 335.5,339.5 C 335.5,339.833 335.5,340.167 335.5,340.5C 333.073,340.523 330.74,341.023 328.5,342C 308.169,342.5 287.836,342.667 267.5,342.5C 287.5,341.833 307.5,341.167 327.5,340.5C 330.127,339.908 332.794,339.575 335.5,339.5 Z"/></g>
<g><path style="opacity:1" fill="#a7e5c6" d="M 214.5,286.5 C 215.497,304.993 215.83,323.659 215.5,342.5C 190.53,343.638 165.53,343.805 140.5,343C 139.584,342.722 138.918,342.222 138.5,341.5C 139.167,341.5 139.833,341.5 140.5,341.5C 141.167,341.5 141.833,341.5 142.5,341.5C 166.339,342.692 190.339,342.692 214.5,341.5C 214.5,323.167 214.5,304.833 214.5,286.5 Z"/></g>
<g><path style="opacity:1" fill="#fefdc5" d="M 335.5,340.5 C 334.051,342.164 332.051,342.998 329.5,343C 308.836,343.5 288.169,343.667 267.5,343.5C 266.454,349.214 266.454,354.714 267.5,360C 265.956,361.187 264.289,361.52 262.5,361C 261.884,358.821 260.717,356.988 259,355.5C 258.51,354.207 258.343,352.873 258.5,351.5C 258.833,351.5 259.167,351.5 259.5,351.5C 259.833,355.167 261.833,357.167 265.5,357.5C 265.334,352.821 265.501,348.155 266,343.5C 266.383,342.944 266.883,342.611 267.5,342.5C 287.836,342.667 308.169,342.5 328.5,342C 330.74,341.023 333.073,340.523 335.5,340.5 Z"/></g>
<g><path style="opacity:1" fill="#121212" d="M 115.5,344.5 C 120.618,344.754 122.118,347.088 120,351.5C 110.346,363.477 101.179,375.81 92.5,388.5C 98.8371,393.328 105.337,397.995 112,402.5C 112.115,404.938 111.115,406.938 109,408.5C 100.162,402.642 91.6624,396.475 83.5,390C 93.2661,375.896 103.433,362.063 114,348.5C 114.791,347.255 115.291,345.922 115.5,344.5 Z"/></g>
<g><path style="opacity:1" fill="#101010" d="M 325.5,358.5 C 343.415,368.801 360.748,380.134 377.5,392.5C 375.796,394.041 373.963,395.375 372,396.5C 367,393.167 362,389.833 357,386.5C 351.766,389.535 346.6,392.701 341.5,396C 340.196,396.804 339.529,397.971 339.5,399.5C 340.971,404.579 342.638,409.579 344.5,414.5C 343.055,416.063 341.389,417.396 339.5,418.5C 332.627,400.163 326.627,381.497 321.5,362.5C 322.437,360.712 323.77,359.379 325.5,358.5 Z"/></g>
<g><path style="opacity:1" fill="#ededed" d="M 327.5,366.5 C 327.897,365.475 328.563,365.308 329.5,366C 335.884,371.385 342.55,376.385 349.5,381C 350.451,381.718 350.617,382.551 350,383.5C 345.967,386.364 341.801,389.031 337.5,391.5C 334.605,382.843 331.272,374.51 327.5,366.5 Z"/></g>
<g><path style="opacity:1" fill="#0f0f0f" d="M 276.5,415.5 C 276.41,418.152 277.076,420.485 278.5,422.5C 280.59,427.277 281.923,432.277 282.5,437.5C 280.248,438.333 278.081,438.333 276,437.5C 270.929,419.456 265.762,401.456 260.5,383.5C 269.341,380.334 278.508,378.334 288,377.5C 297.288,378.624 302.455,383.957 303.5,393.5C 303.813,400.045 301.146,404.879 295.5,408C 289.856,410.437 284.023,412.27 278,413.5C 276.97,413.836 276.47,414.503 276.5,415.5 Z"/></g>
<g><path style="opacity:1" fill="#f4f4f4" d="M 283.5,383.5 C 292.784,383.616 296.95,388.283 296,397.5C 294.581,400.296 292.415,402.296 289.5,403.5C 284.304,405.435 278.97,406.768 273.5,407.5C 271.542,401.195 270.042,394.862 269,388.5C 273.839,386.589 278.673,384.923 283.5,383.5 Z"/></g>
<g><path style="opacity:1" fill="#131313" d="M 147.5,427.5 C 145.703,426.607 144.37,425.274 143.5,423.5C 150.147,407.177 156.814,390.844 163.5,374.5C 165.401,373.769 167.401,373.769 169.5,374.5C 163.555,391.817 156.888,408.984 149.5,426C 149.164,427.03 148.497,427.53 147.5,427.5 Z"/></g>
<g><path style="opacity:1" fill="#0e0e0e" d="M 191.5,383.5 C 195.167,383.5 198.833,383.5 202.5,383.5C 205.422,399.94 208.922,416.273 213,432.5C 219.066,417.471 225.233,402.471 231.5,387.5C 234.833,386.167 238.167,386.167 241.5,387.5C 239.669,405.809 238.002,424.143 236.5,442.5C 234.5,442.5 232.5,442.5 230.5,442.5C 231.932,427.853 232.766,413.186 233,398.5C 226.88,412.356 221.046,426.356 215.5,440.5C 213.257,441.474 210.924,441.808 208.5,441.5C 205.164,425.155 201.664,408.821 198,392.5C 196.42,408.137 195.254,423.804 194.5,439.5C 192.167,439.5 189.833,439.5 187.5,439.5C 189.165,420.861 190.498,402.195 191.5,383.5 Z"/></g>
<g><path style="opacity:1" fill="#676767" d="M 276.5,415.5 C 277.924,417.515 278.59,419.848 278.5,422.5C 277.076,420.485 276.41,418.152 276.5,415.5 Z"/></g>
<g><path style="opacity:1" fill="#6d6d6d" d="M 143.5,423.5 C 144.37,425.274 145.703,426.607 147.5,427.5C 143.849,427.771 142.515,426.437 143.5,423.5 Z"/></g>
</svg>
